<svg xmlns="http://www.w3.org/2000/svg" version="1.1" xmlns:xlink="http://www.w3.org/1999/xlink" width="1000" height="1000"><g clip-path="url(#SvgjsClipPath1003)"><rect width="1000" height="1000" fill="#ffffff"></rect><g transform="matrix(3.5,0,0,3.5,150,150)"><svg xmlns="http://www.w3.org/2000/svg" version="1.1" xmlns:xlink="http://www.w3.org/1999/xlink" width="200" height="200"><svg xmlns="http://www.w3.org/2000/svg" version="1.1" xmlns:xlink="http://www.w3.org/1999/xlink" viewBox="0 0 200 200"><rect width="200" height="200" fill="url('#gradient')"></rect><defs><linearGradient id="gradient" gradientTransform="rotate(208 0.5 0.5)"><stop offset="0%" stop-color="#cfb193"></stop><stop offset="100%" stop-color="#c1ae7d"></stop></linearGradient><clipPath id="SvgjsClipPath1003"><rect width="1000" height="1000" x="0" y="0" rx="350" ry="350"></rect></clipPath></defs><g><g fill="#4b4a3a" transform="matrix(3.3453386454183267,0,0,3.3453386454183267,55.560925894315496,123.45254319118789)" stroke="#70545b" stroke-width="1.2"><path d="M8.80-14.22L12.23-14.22L12.23-4.91Q12.23-3.33 11.55-2.17Q10.88-1.02 9.62-0.41Q8.36 0.20 6.64 0.20L6.64 0.20Q4.04 0.20 2.55-1.15Q1.05-2.50 1.03-4.84L1.03-4.84L1.03-14.22L4.47-14.22L4.47-4.78Q4.53-2.44 6.64-2.44L6.64-2.44Q7.71-2.44 8.25-3.03Q8.80-3.61 8.80-4.93L8.80-4.93L8.80-14.22ZM19.04 0L14.37 0L14.37-14.22L18.95-14.22Q20.83-14.22 22.33-13.36Q23.84-12.51 24.68-10.95Q25.53-9.39 25.54-7.46L25.54-7.46L25.54-6.81Q25.54-4.85 24.71-3.31Q23.89-1.76 22.39-0.88Q20.89-0.01 19.04 0L19.04 0ZM18.95-11.57L17.79-11.57L17.79-2.64L18.98-2.64Q20.46-2.64 21.25-3.69Q22.04-4.74 22.04-6.81L22.04-6.81L22.04-7.42Q22.04-9.48 21.25-10.53Q20.46-11.57 18.95-11.57L18.95-11.57Z"></path></g></g></svg></svg></g></g></svg>